<?xml version="1.0" encoding="UTF-8"?>
<svg width="200px" height="128px" viewBox="0 0 200 128" version="1.1" xmlns="http://www.w3.org/2000/svg" xmlns:xlink="http://www.w3.org/1999/xlink">
    <title>暂无数据_01</title>
    <defs>
        <linearGradient x1="-40.5571755%" y1="-184.589016%" x2="63.1756645%" y2="101.42306%" id="linearGradient-1">
            <stop stop-color="#B3BFDC" offset="0%"></stop>
            <stop stop-color="#B3BFDC" stop-opacity="0" offset="100%"></stop>
        </linearGradient>
        <linearGradient x1="106.383644%" y1="-111.215248%" x2="52.2356792%" y2="54.7300118%" id="linearGradient-2">
            <stop stop-color="#B3BFDC" offset="0%"></stop>
            <stop stop-color="#B3BFDC" stop-opacity="0" offset="100%"></stop>
        </linearGradient>
        <linearGradient x1="50.1044348%" y1="-220.895186%" x2="50.1044348%" y2="100.349379%" id="linearGradient-3">
            <stop stop-color="#B3BFDC" offset="0%"></stop>
            <stop stop-color="#B3BFDC" stop-opacity="0" offset="100%"></stop>
        </linearGradient>
        <linearGradient x1="68.9290672%" y1="-98.2837611%" x2="43.4531243%" y2="104.682427%" id="linearGradient-4">
            <stop stop-color="#B3BFDC" offset="0%"></stop>
            <stop stop-color="#B3BFDC" stop-opacity="0" offset="100%"></stop>
        </linearGradient>
        <linearGradient x1="50.6068371%" y1="-104.168691%" x2="50.6068371%" y2="123.919792%" id="linearGradient-5">
            <stop stop-color="#B3BFDC" offset="0%"></stop>
            <stop stop-color="#B3BFDC" stop-opacity="0" offset="100%"></stop>
        </linearGradient>
        <linearGradient x1="49.4403589%" y1="-167.543241%" x2="49.4403589%" y2="101.506037%" id="linearGradient-6">
            <stop stop-color="#B3BFDC" offset="0%"></stop>
            <stop stop-color="#B3BFDC" stop-opacity="0" offset="100%"></stop>
        </linearGradient>
        <linearGradient x1="5.68350189%" y1="34.9356978%" x2="88.6470087%" y2="63.5453224%" id="linearGradient-7">
            <stop stop-color="#EDF1F9" offset="0%"></stop>
            <stop stop-color="#B3BFDC" offset="100%"></stop>
        </linearGradient>
        <linearGradient x1="0%" y1="50.0203847%" x2="100%" y2="50.0203847%" id="linearGradient-8">
            <stop stop-color="#B3BFDC" offset="0%"></stop>
            <stop stop-color="#B3BFDC" offset="100%"></stop>
        </linearGradient>
        <linearGradient x1="97.9031243%" y1="8.29793212%" x2="-3.37165655%" y2="93.2797258%" id="linearGradient-9">
            <stop stop-color="#E8F1FF" offset="0%"></stop>
            <stop stop-color="#8DBAFF" offset="100%"></stop>
        </linearGradient>
    </defs>
    <g id="页面-1" stroke="none" stroke-width="1" fill="none" fill-rule="evenodd">
        <g id="暂无数据" transform="translate(-1016.000000, -614.000000)" fill-rule="nonzero">
            <g id="暂无数据-01" transform="translate(1016.000000, 614.000000)">
                <path d="M42.1832885,87.6539768 C38.1193572,85.7540059 33.7077984,80.6489039 34.9576021,75.8519052 C35.5883138,75.6759036 36.2568507,75.9403185 36.6129713,76.5066249 C36.6129713,76.5066249 43.6482902,87.897892 41.6866777,77.4180975 C40.7555326,72.4927224 39.1498245,67.7299575 39.0215334,62.6419723 C38.8146122,53.3903121 47.0211048,50.827063 49.3675906,61.0458255 C49.6779723,62.3980571 50.8698381,73.3827989 53.5846435,72.12471 C53.9394631,71.9347563 54.2286241,71.6357579 54.4123281,71.2688673 C55.7862845,68.9324165 56.2001268,65.5004871 58.7245648,64.7088325 C60.938621,63.9856454 63.1195699,65.9925967 64.3114357,68.0295024 C66.7282747,72.1974566 69.9645214,82.5788293 65.0149676,86.0835054 C60.0654138,89.5881815 47.5839304,90.1573169 42.2536417,87.696769 L42.1832885,87.6539768 Z" id="路径" fill="url(#linearGradient-1)"></path>
                <path d="M145.748365,98.0526371 C143.92885,93.9117384 143.970969,87.2100208 148.102785,84.5653781 C148.687649,84.875432 149.00428,85.5259168 148.886187,86.1747962 C148.886187,86.1747962 146.683394,99.2471271 152.112457,90.2863565 C154.694316,86.0658252 156.631762,81.5267632 159.858032,77.7421159 C165.792516,70.8434123 173.702353,74.5861476 168.736593,83.6097861 C168.092181,84.8042761 161.723878,93.5932077 164.604777,94.5278438 C164.994602,94.6240359 165.404676,94.5991718 165.779881,94.4565935 C168.361739,93.7021788 170.943598,91.4892289 173.386465,92.6082774 C175.526081,93.5932077 175.863028,96.5060869 175.412361,98.8154342 C174.481544,103.484423 169.936968,108.70665 163.871917,107.897749 C157.684723,107.059511 148.149115,103.50957 145.761001,98.094549 L145.748365,98.0526371 Z" id="路径-2" fill="url(#linearGradient-2)"></path>
                <path d="M196.244131,107.981221 C172.074301,91.2161374 137.878343,80.7511737 100,80.7511737 C62.1216575,80.7511737 27.9424372,91.2161374 3.75586854,107.981221 L196.244131,107.981221 Z" id="路径-3" fill="url(#linearGradient-3)"></path>
                <path d="M156.915243,58.2159624 C155.367772,60.1469074 154.378405,62.8796143 155.304351,65.3226794 C155.942789,67.001762 157.875014,67.0227505 157.739716,69.3650707 C157.604871,70.5345168 157.201286,71.6575901 156.560086,72.6476771 C155.464818,74.5486619 154.122922,76.2986659 152.568794,77.8528331 C153.863578,78.856487 154.522393,80.4685096 154.298072,82.0841212 C154.043948,83.6891231 153.277745,85.1707979 152.112163,86.3112115 C151.76973,86.7271303 151.32372,87.0469362 150.818376,87.2389047 C150.327428,87.35229 149.816817,87.35229 149.325869,87.2389047 C146.915567,86.832189 144.575378,86.0888185 142.374932,85.0309111 C141.000812,84.3802666 139.601323,83.4945505 139.132008,82.0925166 C138.599272,80.4680042 139.449112,79.9516863 140.375058,79.4395661 L140.616058,79.3094372 C141.109066,79.0823898 141.534417,78.7324044 141.850652,78.2935923 C142.531371,77.1895955 142.548283,75.7078051 142.789283,74.4736794 C143.140212,72.6518748 142.62016,69.3314891 144.903314,68.5968904 C145.791208,68.3198418 146.755206,68.3828074 147.6431,68.1015611 C149.571097,67.4928936 150.370201,65.6920776 151.143936,63.870273 L151.283463,63.5386542 C151.662284,62.5077495 152.198461,61.5407809 152.873214,60.6716207 C153.858353,59.53824 156.26835,59.0009335 156.915243,58.2159624 Z M151.317287,69.0166611 C151.317287,69.0166611 144.336754,77.0972459 144.552385,84.5481748 L146.805943,84.5481748 C146.805943,84.5481748 147.634644,75.5608854 151.317287,69.0166611 L151.317287,69.0166611 Z" id="形状结合" fill="url(#linearGradient-4)"></path>
                <path d="M58.1229199,15.6117376 L58.1229199,15.6117376 C58.1561938,13.0520788 56.3952307,10.8461974 53.9676293,10.406587 C51.540028,9.96697661 49.1644517,11.4237788 48.3620549,13.8441584 C46.8404914,13.826258 45.4295758,14.6680765 44.6777392,16.0423942 C43.9259026,17.4167119 43.9517387,19.1067457 44.7452048,20.4555697 C45.5386709,21.8043937 46.9746067,22.5992462 48.4948557,22.5311635 L57.7120671,22.5311635 C59.4692688,22.517946 60.9170227,21.0944789 61.0262967,19.2725321 C61.1355706,17.4505852 59.8691022,15.8514414 58.1270699,15.6117376 L58.1229199,15.6117376 Z" id="路径-4" fill="url(#linearGradient-5)"></path>
                <path d="M96.9519053,11.1409573 L96.9519053,11.1196435 C96.9460268,7.99102443 94.7734929,5.31988571 91.8028326,4.7888389 C88.8321723,4.2577921 85.9238201,6.02065185 84.9098139,8.96695235 C82.0494843,9.01403744 79.7675054,11.4588263 79.8128714,14.4275412 C79.8582375,17.396256 82.2137693,19.7647049 85.0740989,19.7176198 L96.4056576,19.7176198 C98.5604422,19.6829674 100.326904,17.9336458 100.461332,15.7012983 C100.59576,13.4689508 99.0529069,11.5049597 96.9190483,11.1921103 L96.9519053,11.1409573 Z" id="路径-5" fill="url(#linearGradient-6)"></path>
                <path d="M65.1706347,39.4366197 L127.313452,39.4366197 C128.162551,39.4355133 128.977252,39.772246 129.578048,40.3726261 C130.178844,40.9730062 130.516432,41.787767 130.516432,42.6373871 L130.516432,85.0621434 C130.516432,85.9117635 130.178844,86.7265244 129.578048,87.3269044 C128.977252,87.9272845 128.162551,88.2640172 127.313452,88.2629108 L65.1706347,88.2629108 C63.4039842,88.2629108 61.971831,86.8298769 61.971831,85.0621434 L61.971831,42.6248515 C61.9787309,40.8620154 63.4088651,39.4366197 65.1706347,39.4366197 Z" id="路径-6" fill="url(#linearGradient-7)"></path>
                <path d="M67.9481027,43.1924883 L126.422273,43.1924883 C126.761023,43.1924883 127.085898,43.3285532 127.325431,43.5706558 C127.564963,43.8127584 127.699531,44.1411201 127.699531,44.4835049 L127.699531,86.3849765 L66.6666667,86.3849765 L66.6666667,44.4919426 C66.6657429,44.1470473 66.8009538,43.816022 67.0423353,43.5722365 C67.2806365,43.3264829 67.6076663,43.189393 67.9481027,43.1924883 Z" id="路径-7" fill="#FFFFFF" opacity="0.49"></path>
                <path d="M58.2159624,85.4460094 L136.150235,85.4460094 C136.070535,87.6011575 134.342022,89.2809527 132.2884,89.1989991 L62.103011,89.1989991 C60.0486456,89.2809837 58.318928,87.6018452 58.2369735,85.4460094 L58.2159624,85.4460094 Z" id="路径-8" fill="url(#linearGradient-8)"></path>
                <path d="M84.5070423,85.4460094 L107.981221,85.4460094 C107.981221,86.4864865 107.264774,87.3239437 106.371322,87.3239437 L86.1422274,87.3239437 C85.2234894,87.3203183 84.5070423,86.4792358 84.5070423,85.4460094 Z" id="路径-9" fill="#7D8CAA"></path>
                <circle id="椭圆形" fill="url(#linearGradient-9)" transform="translate(128.253335, 79.694057) rotate(-80.780000) translate(-128.253335, -79.694057) " cx="128.253335" cy="79.6940567" r="18.6153424"></circle>
                <path d="M102.258816,76.0319715 C101.758212,76.071402 101.317375,75.6981651 101.263076,75.188924 L101.263076,61.489403 C101.317375,60.9801619 101.758212,60.606925 102.258816,60.6463555 L106.993744,60.6463555 C107.49269,60.6071561 107.931085,60.9814308 107.981221,61.489403 L107.981221,75.188924 C107.93534,75.699184 107.494147,76.075848 106.993744,76.0319715 L102.258816,76.0319715 Z M91.9295652,75.188924 L91.9295652,55.3098652 C91.9775917,54.8007559 92.4173705,54.4252994 92.9170416,54.4668177 L97.6684969,54.4668177 C97.9145585,54.4365006 98.162129,54.5095346 98.3543591,54.6691491 C98.5463382,54.8282375 98.6682643,55.0588165 98.6931585,55.3098652 L98.6931585,75.188924 C98.6430268,75.6986662 98.2020399,76.0735853 97.7015505,76.0319715 L92.9418318,76.0319715 C92.6958093,76.0617968 92.4484238,75.9888174 92.2559695,75.8296401 C92.0662438,75.6692145 91.9460246,75.4390567 91.9213018,75.188924 L91.9295652,75.188924 Z M82.629108,75.188924 L82.629108,64.8868842 C82.6771126,64.3759931 83.1195024,63.9998812 83.620716,64.0438367 L88.3721713,64.0438367 C88.8718424,64.0023184 89.3116212,64.377775 89.3596477,64.8868842 L89.3596477,75.188924 C89.320087,75.7053446 88.8784791,76.091788 88.3721713,76.0530477 L83.620716,76.0530477 C83.3766056,76.0739798 83.1344309,75.9944196 82.9481612,75.8320974 C82.7618916,75.6697752 82.6470063,75.4381802 82.629108,75.188924 L82.629108,75.188924 Z" id="形状" fill="#FFFFFF"></path>
                <circle id="椭圆形-2" fill="#FFFFFF" cx="118.309859" cy="79.8122066" r="2.81690141"></circle>
                <circle id="椭圆形-3" fill="#FFFFFF" cx="127.699531" cy="79.8122066" r="2.81690141"></circle>
                <circle id="椭圆形-4" fill="#FFFFFF" transform="translate(137.859664, 79.692648) rotate(-80.780000) translate(-137.859664, -79.692648) " cx="137.859664" cy="79.6926484" r="2.95820343"></circle>
            </g>
        </g>
    </g>
</svg>